<svg xmlns="http://www.w3.org/2000/svg" xmlns:xlink="http://www.w3.org/1999/xlink" width="500" zoomAndPan="magnify" viewBox="0 0 375 374.999991" height="500" preserveAspectRatio="xMidYMid meet" version="1.0"><defs><g/><clipPath id="c413c6f66f"><path d="M 56.25 56.25 L 318.75 56.25 L 318.75 318.75 L 56.25 318.75 Z M 56.25 56.25 " clip-rule="nonzero"/></clipPath><clipPath id="b4baceb7f2"><path d="M 187.5 56.25 C 115.011719 56.25 56.25 115.011719 56.25 187.5 C 56.25 259.988281 115.011719 318.75 187.5 318.75 C 259.988281 318.75 318.75 259.988281 318.75 187.5 C 318.75 115.011719 259.988281 56.25 187.5 56.25 Z M 187.5 56.25 " clip-rule="nonzero"/></clipPath><clipPath id="f01cf48a78"><path d="M 0.25 0.25 L 262.75 0.25 L 262.75 262.75 L 0.25 262.75 Z M 0.25 0.25 " clip-rule="nonzero"/></clipPath><clipPath id="646f9552a6"><path d="M 131.5 0.25 C 59.011719 0.25 0.25 59.011719 0.25 131.5 C 0.25 203.988281 59.011719 262.75 131.5 262.75 C 203.988281 262.75 262.75 203.988281 262.75 131.5 C 262.75 59.011719 203.988281 0.25 131.5 0.25 Z M 131.5 0.25 " clip-rule="nonzero"/></clipPath><clipPath id="7a33c4a16b"><rect x="0" width="263" y="0" height="263"/></clipPath></defs><rect x="-37.5" width="450" fill="#ffffff" y="-37.499999" height="449.999989" fill-opacity="1"/><rect x="-37.5" width="450" fill="#ff9b71" y="-37.499999" height="449.999989" fill-opacity="1"/><g clip-path="url(#c413c6f66f)"><g clip-path="url(#b4baceb7f2)"><g transform="matrix(1, 0, 0, 1, 56, 56)"><g clip-path="url(#7a33c4a16b)"><g clip-path="url(#f01cf48a78)"><g clip-path="url(#646f9552a6)"><path fill="#ffffff" d="M 0.25 0.25 L 262.75 0.25 L 262.75 262.75 L 0.25 262.75 Z M 0.25 0.25 " fill-opacity="1" fill-rule="nonzero"/></g></g></g></g></g></g><g fill="#059669" fill-opacity="1"><g transform="translate(118.874997, 245.574939)"><g><path d="M 125.75 -27.578125 C 127.144531 -23.117188 129.515625 -19.632812 132.859375 -17.125 C 136.203125 -14.625 139.753906 -13.375 143.515625 -13.375 C 143.515625 -10.863281 143.09375 -8.421875 142.25 -6.046875 C 141.414062 -3.679688 140.234375 -1.664062 138.703125 0 L 82.09375 0 C 80.5625 -1.664062 79.378906 -3.679688 78.546875 -6.046875 C 77.710938 -8.421875 77.296875 -10.863281 77.296875 -13.375 C 85.234375 -13.375 89.203125 -16.710938 89.203125 -23.390625 C 89.203125 -26.179688 88.710938 -29.457031 87.734375 -33.21875 L 86.484375 -37.59375 L 39.6875 -37.59375 L 38.4375 -33.21875 C 37.1875 -28.894531 36.5625 -25.828125 36.5625 -24.015625 C 36.5625 -16.921875 41.015625 -13.375 49.921875 -13.375 C 49.921875 -10.863281 49.503906 -8.421875 48.671875 -6.046875 C 47.835938 -3.679688 46.65625 -1.664062 45.125 0 L -1.46875 0 C -3 -1.664062 -4.179688 -3.679688 -5.015625 -6.046875 C -5.847656 -8.421875 -6.265625 -10.863281 -6.265625 -13.375 C -2.367188 -13.375 1.175781 -14.519531 4.375 -16.8125 C 7.582031 -19.113281 9.953125 -22.492188 11.484375 -26.953125 L 45.75 -128.046875 C 40.175781 -129.859375 33.144531 -130.765625 24.65625 -130.765625 C 24.65625 -136.753906 26.320312 -141.769531 29.65625 -145.8125 L 86.90625 -145.8125 Z M 81.890625 -53.890625 L 67.046875 -105.703125 C 65.796875 -109.878906 64.195312 -113.429688 62.25 -116.359375 L 44.28125 -53.890625 Z M 81.890625 -53.890625 "/></g></g></g></svg>